<?xml version="1.0" standalone="no"?><!DOCTYPE svg PUBLIC "-//W3C//DTD SVG 1.1//EN" "http://www.w3.org/Graphics/SVG/1.1/DTD/svg11.dtd"><svg t="1552305577817" class="icon" style="" viewBox="0 0 1024 1024" version="1.1" xmlns="http://www.w3.org/2000/svg" p-id="7823" xmlns:xlink="http://www.w3.org/1999/xlink" width="128" height="128"><defs><style type="text/css"></style></defs><path d="M960 848.982C960 879.366 938.017 904 910.904 904H113.096C85.97 904 64 879.366 64 848.982V175.018C64 144.62 85.97 120 113.096 120h797.808C938.017 120 960 144.62 960 175.018v673.964zM904 848l-0.26-182.027-74.7-79.931-117.869 135.49c-15.665 21.157-39.548 19.205-56.438-1.02L387.308 409.396 119.74 679.58l0.26 168.119L904 848zM120 176l0.725 429.509 236.221-240.208c18.619-17.437 48.087-16.883 66.173 1.233l264.41 304.448 116.964-133.268c19.604-23.445 39.668-19.067 56.934 0.111l42.866 48.78L903.944 176H120z m653.333 149.32c0-30.882-25.115-56-55.995-56s-56.005 25.118-56.005 56c0 30.873 25.124 56 56.005 56s55.995-25.127 55.995-56z" fill="#ffffff" p-id="7824"></path></svg>