<?xml version="1.0" standalone="no"?><!DOCTYPE svg PUBLIC "-//W3C//DTD SVG 1.1//EN" "http://www.w3.org/Graphics/SVG/1.1/DTD/svg11.dtd"><svg t="1552304265102" class="icon" style="" viewBox="0 0 1024 1024" version="1.1" xmlns="http://www.w3.org/2000/svg" p-id="6211" xmlns:xlink="http://www.w3.org/1999/xlink" width="128" height="128"><defs><style type="text/css"></style></defs><path d="M950.609201 197.857627c-0.495884-7.314286-4.338983-13.512833-9.793705-16.612106L792.422276 31.116707l-0.371913-0.371913-16.116223-16.240194c-3.099274-5.578692-8.553995-9.297821-14.752542-9.29782H285.009201c-29.009201 0-52.439709 27.645521-52.439709 61.365617v392.49201h-137.607749C84.300242 458.940436 75.622276 466.750605 75.622276 476.172397V699.196126c0 9.421792 8.801937 17.10799 19.339467 17.10799h137.483778v241.123487c0 33.968039 23.430508 61.365617 52.439709 61.365617h613.160291c29.009201 0 52.439709-27.645521 52.439709-61.365617V202.940436c0.371913-1.735593 0.247942-3.471186 0.123971-5.082809z m-66.820339-18.719612h-105.00339V72.770944l105.00339 106.367071zM267.405327 520.553995h40.290557v131.657143h-40.290557V520.553995z m-41.902179 51.2v26.653753H174.427119v53.80339h-40.910412V520.553995h98.928814v28.265375H174.427119v22.934625h51.076029z m672.666344 406.128814H285.009201c-9.669734 0-17.603874-9.17385-17.603874-20.455206V716.180145H642.169492c10.785472 0 19.339467-7.810169 19.587409-17.231961V476.172397c0-9.421792-8.801937-17.10799-19.339468-17.10799H267.405327V66.696368c0-11.281356 7.810169-20.579177 17.603874-20.579177h458.444552V200.83293c0 11.281356 7.93414 20.455206 17.603874 20.455206h154.83971v735.891525c-0.247942 11.529298-7.93414 20.703148-17.727845 20.703148zM450.386441 619.730751V652.087167h-104.135594V520.553995H386.789346v99.176756h63.597095z m131.657143-50.084262v26.901695h-63.349153v25.909927H588.861985v29.876998h-111.077966V520.553995h109.094431v28.141405h-68.184019v20.951089h63.349153z" fill="#ffffff" p-id="6212"></path></svg>